<svg xmlns="http://www.w3.org/2000/svg" viewBox="0 0 40 39.99"><defs><style>.cls-1{fill:#777;}</style></defs><title>404_index</title><g id="圖層_2" data-name="圖層 2"><g id="圖層_4" data-name="圖層 4"><path class="cls-1" d="M32,40H24a1,1,0,0,1-1-1V30H17v9a1,1,0,0,1-1,1H8a1,1,0,0,1-1-1V22H1A1,1,0,0,1,.27,20.3l19-20a1,1,0,0,1,1.46,0l19,20a1,1,0,0,1,.2,1.08A1,1,0,0,1,39,22H33V39A1,1,0,0,1,32,40Zm-7-2h6V21a1,1,0,0,1,1-1h4.67L20,2.44,3.33,20H8a1,1,0,0,1,1,1V38h6V29a1,1,0,0,1,1-1h8a1,1,0,0,1,1,1Z"/></g></g></svg>