<?xml version="1.0" encoding="utf-8"?>
<!-- Generator: Adobe Illustrator 23.0.1, SVG Export Plug-In . SVG Version: 6.00 Build 0)  -->
<svg version="1.1" id="圖層_1" xmlns="http://www.w3.org/2000/svg" xmlns:xlink="http://www.w3.org/1999/xlink" x="0px" y="0px"
	 viewBox="0 0 203 46" style="enable-background:new 0 0 203 46;" xml:space="preserve">
<style type="text/css">
	.st0{fill:#AACC05;}
</style>
<g>
	<g>
		<path class="st0" d="M9.6,5.7C15,1.9,21.9,0,29.5,0c4,0,9.6,0.7,13.1,1.6c0.9,0.2,1.4,0.3,2.1,0.3c0.1,1.5,0.4,5.7,1,9.8
			c-0.4,0.5-1.5,0.5-2,0.1c-1.1-4.5-4.4-9.7-15.1-9.7C17.3,2.1,7.7,8.5,7.7,22.3c0,14,9.8,21.7,21.9,21.7c9.5,0,13.7-5.6,15.4-9.5
			c0.5-0.3,1.6-0.2,1.9,0.3c-0.5,3.5-2.4,7.8-3.5,9.1c-0.9,0.1-1.8,0.4-2.6,0.7C39.2,45,33.9,46,29.2,46c-6.6,0-13-1.2-18.4-4.5
			C4.9,37.9,0.3,31.8,0.3,23.3C0.3,15.9,4,9.6,9.6,5.7z"/>
		<path class="st0" d="M63,46c-6.2,0-10.1-1.7-11.5-2.5c-0.9-1.5-1.8-6.2-2-9.3c0.4-0.5,1.5-0.6,1.8-0.2c1.1,3.4,4.1,9.9,12.7,9.9
			c6.2,0,9.2-3.7,9.2-7.6c0-2.9-0.7-6.2-6.1-9.3l-7-4.1c-3.7-2.2-8-6-8-11.4C52.2,5.1,57.6,0,67.2,0c2.3,0,4.9,0.4,6.9,0.9
			c1,0.3,2,0.4,2.6,0.4C77.4,2.9,78,6.6,78,9.4c-0.3,0.4-1.5,0.6-1.8,0.2c-1-3.2-3-7.5-10-7.5c-7.2,0-8.8,4.3-8.8,7.4
			c0,3.9,3.5,6.6,6.3,8.2l5.9,3.3c4.7,2.6,9.2,6.4,9.2,12.8C78.8,41,72.6,46,63,46z"/>
		<path class="st0" d="M87.7,11.1c0-6.3-0.2-7.4-3.2-7.8l-2.4-0.3c-0.5-0.3-0.5-1.4,0.1-1.7c4.1-0.3,9.2-0.5,16.5-0.5
			c4.6,0,8.9,0.3,12.3,2c3.5,1.7,6.1,4.7,6.1,9.3c0,6.3-5.5,9.8-9.2,11.1c-0.4,0.4,0,1.1,0.4,1.6c5.9,8.6,9.8,13.9,14.8,17.7
			c1.3,1,3.1,1.7,5.1,1.9c0.4,0.1,0.4,0.7,0.1,0.9c-0.7,0.2-1.8,0.3-3.2,0.3c-6.3,0-10-1.7-15.3-8.4c-1.9-2.5-4.9-7-7.2-10
			c-1.1-1.5-2.3-2.1-5.2-2.1c-3.3,0-3.5,0.1-3.5,1.5V35c0,7,0.1,7.8,4.4,8.3l1.6,0.2c0.4,0.3,0.3,1.5-0.1,1.7
			c-3.3-0.1-5.8-0.2-8.8-0.2c-3.1,0-5.8,0.1-9.2,0.2c-0.4-0.2-0.6-1.2-0.1-1.7l1.8-0.2c4.3-0.5,4.4-1.3,4.4-8.3V11.1z M93.8,20.6
			c0,1.2,0,1.9,0.2,2.2c0.2,0.2,1.3,0.3,5.1,0.3c2.7,0,5.5-0.3,7.6-1.7c2-1.4,3.7-3.7,3.7-8.2c0-5.3-3.6-10.2-11.8-10.2
			c-4.6,0-4.8,0.3-4.8,2.1V20.6z"/>
	</g>
	<g>
		<path class="st0" d="M175.9,28.1c-0.2,0.3-0.6,0.4-1.3,0.4h-8.8c1,4,4.1,8,11.4,10.5l-0.1,0.3c-1.4,0.3-2.3,1-2.5,2.6
			c-6.5-3.2-8.5-8.8-9.3-13.3h-0.1c-0.9,5.7-3.7,10.1-12.6,13.2l-0.3-0.4c6.9-3.5,9.2-7.8,9.9-12.8h-8.4l-0.2-0.5h8.6
			c0.3-2.3,0.3-4.8,0.3-7.5h-10l-0.1-0.5h19.6l1.7-2.2l3.2,2.3c-0.2,0.3-0.5,0.4-1.3,0.4h-9.9c-0.1,2.7-0.1,5.2-0.4,7.5h5.7l1.7-2.1
			L175.9,28.1z"/>
		<path class="st0" d="M199.4,17.5l3.3,2.4c-0.2,0.3-0.5,0.5-1.3,0.5h-10.1v5.6c6.7,0.8,8.9,3.4,8.9,5.1c0,0.9-0.6,1.5-1.4,1.5
			c-0.3,0-0.7-0.1-1-0.3c-1.3-2.1-4-4.5-6.5-5.9V41c0,0.2-1,0.9-2.4,0.9h-0.6V20.3h-10.2l-0.1-0.5h19.5L199.4,17.5z"/>
	</g>
	<g>
		<path class="st0" d="M145.9,38.5c-1,0.7-2.1,1.4-3.4,1.8c-1.3,0.5-2.8,0.7-4.4,0.7c-1.4,0-2.9-0.2-4.3-0.6c-1.4-0.4-2.6-1-3.8-1.9
			c-1.1-0.8-2-1.9-2.7-3.2c-0.7-1.3-1-2.8-1-4.5c0-1.5,0.3-2.9,0.9-4.3c0.6-1.4,1.5-2.6,2.6-3.7c1.1-1.1,2.5-1.9,4.1-2.6
			c1.6-0.6,3.4-1,5.3-1c1.7,0,3.1,0.2,4.3,0.7c1.2,0.5,2.2,1.1,3,1.9c0.8,0.8,1.4,1.7,1.7,2.7c0.4,1,0.6,2.1,0.6,3.1
			c0,2.1-0.6,3.9-1.9,5.3c-1.3,1.4-2.9,2.2-4.9,2.2c-0.8,0-1.5-0.2-2.1-0.5c-0.6-0.4-0.9-0.9-0.9-1.5l-0.1,0c-0.5,0.6-1,1.1-1.6,1.5
			c-0.6,0.4-1.2,0.6-1.8,0.6c-0.4,0-0.8-0.1-1.2-0.2c-0.4-0.1-0.8-0.3-1.1-0.6c-0.3-0.3-0.6-0.7-0.8-1.1c-0.2-0.5-0.3-1-0.3-1.7
			c0-0.6,0.2-1.3,0.5-2.1c0.3-0.8,0.8-1.5,1.3-2.2c0.5-0.7,1.2-1.3,2.1-1.9c0.9-0.5,1.8-0.8,2.8-0.8c0.5,0,1,0.1,1.4,0.4
			c0.4,0.3,0.7,0.7,0.8,1.2h0.1l0.6-1.4h2.1l-2.7,6.9c-0.1,0.2-0.2,0.5-0.2,0.7c-0.1,0.3-0.1,0.5-0.1,0.7c0,0.4,0.1,0.8,0.4,1
			c0.2,0.2,0.6,0.3,1,0.3c1.5,0,2.7-0.6,3.7-1.9c1-1.2,1.5-2.9,1.5-4.9c0-1-0.2-2-0.5-2.8c-0.4-0.9-0.9-1.6-1.6-2.3
			c-0.7-0.7-1.6-1.2-2.6-1.5c-1.1-0.4-2.3-0.6-3.6-0.6c-1.3,0-2.6,0.2-3.8,0.7c-1.2,0.5-2.4,1.1-3.4,2c-1,0.9-1.8,1.9-2.4,3.2
			c-0.6,1.3-0.9,2.7-0.9,4.3c0,1.6,0.2,2.9,0.7,4.1c0.5,1.2,1.1,2.2,2,3c0.8,0.8,1.9,1.4,3,1.7c1.2,0.4,2.4,0.6,3.7,0.6
			c1.5,0,2.9-0.2,4.1-0.6c1.2-0.4,2.2-0.9,3.2-1.6L145.9,38.5z M140.9,27.4c-0.1-0.7-0.3-1.2-0.6-1.5c-0.3-0.3-0.7-0.5-1.3-0.5
			c-0.6,0-1.2,0.2-1.7,0.7c-0.5,0.4-0.9,1-1.3,1.6c-0.4,0.6-0.7,1.3-0.9,2.1c-0.2,0.8-0.3,1.4-0.3,2.1c0,0.7,0.1,1.3,0.3,1.7
			c0.2,0.4,0.5,0.6,1,0.6c0.6,0,1.2-0.2,1.7-0.6c0.5-0.4,1-1,1.4-1.7L140.9,27.4z"/>
	</g>
</g>
</svg>
