<?xml version="1.0" encoding="utf-8"?>
<!-- Generator: Adobe Illustrator 23.0.1, SVG Export Plug-In . SVG Version: 6.00 Build 0)  -->
<svg version="1.1" id="圖層_1" xmlns="http://www.w3.org/2000/svg" xmlns:xlink="http://www.w3.org/1999/xlink" x="0px" y="0px"
	 viewBox="0 0 22 22" style="enable-background:new 0 0 22 22;" xml:space="preserve">
<style type="text/css">
	.st0{fill:#767676;}
</style>
<path class="st0" d="M21.6,19.5l-5.1-5.1c1.1-1.5,1.7-3.3,1.7-5.3c0-5-4.1-9.1-9.1-9.1S0,4.1,0,9.1s4.1,9.1,9.1,9.1
	c2,0,3.8-0.7,5.3-1.7l5.1,5.1c0.3,0.3,0.6,0.4,1,0.4c0.4,0,0.7-0.1,1-0.4c0.3-0.3,0.4-0.6,0.4-1C22,20.2,21.8,19.8,21.6,19.5z
	 M9.1,15.3c-3.5,0-6.2-2.7-6.2-6.2c0-3.5,2.7-6.2,6.2-6.2c3.5,0,6.2,2.7,6.2,6.2C15.3,12.6,12.6,15.3,9.1,15.3z"/>
</svg>
